<svg xmlns="http://www.w3.org/2000/svg" viewBox="0 0 1024 1024">
  <defs>
    <linearGradient id="shell" x1="0" y1="0" x2="1" y2="1">
      <stop offset="0" stop-color="#2d3a47"/>
      <stop offset="1" stop-color="#182129"/>
    </linearGradient>
    <linearGradient id="paper" x1="0" y1="0" x2="0" y2="1">
      <stop offset="0" stop-color="#ffe07a"/>
      <stop offset="1" stop-color="#f2c553"/>
    </linearGradient>
    <filter id="lift" x="-30%" y="-30%" width="160%" height="170%">
      <feDropShadow dx="0" dy="28" stdDeviation="32" flood-color="#0d141a" flood-opacity="0.38"/>
    </filter>
  </defs>

  <rect x="64" y="64" width="896" height="896" rx="220" fill="url(#shell)"/>
  <rect x="75" y="75" width="874" height="874" rx="209" fill="none" stroke="#ffffff" stroke-opacity="0.12" stroke-width="10"/>

  <g filter="url(#lift)">
    <path d="M166 306H302V408H194L166 380Z" fill="#4c86b8"/>
    <path d="M166 448H302V550H194L166 522Z" fill="#d75b57"/>
    <path d="M166 590H302V692H194L166 664Z" fill="#4e9b75"/>

    <path d="M300 178H724C774 178 814 218 814 268V652L628 838H300C250 838 210 798 210 748V268C210 218 250 178 300 178Z" fill="url(#paper)"/>
    <path d="M628 838V722C628 683 659 652 698 652H814Z" fill="#dcae3f"/>
    <path d="M628 838V722C628 683 659 652 698 652H814" fill="none" stroke="#c5962e" stroke-width="12" stroke-linejoin="round"/>

    <rect x="330" y="326" width="352" height="34" rx="17" fill="#27343e" fill-opacity="0.9"/>
    <rect x="330" y="424" width="278" height="30" rx="15" fill="#3d4a54" fill-opacity="0.78"/>
    <rect x="330" y="518" width="326" height="30" rx="15" fill="#3d4a54" fill-opacity="0.78"/>
    <rect x="330" y="612" width="204" height="30" rx="15" fill="#3d4a54" fill-opacity="0.78"/>
  </g>

  <circle cx="744" cy="264" r="42" fill="#ffffff" fill-opacity="0.2"/>
  <path d="M724 264L740 280L768 246" fill="none" stroke="#27343e" stroke-width="18" stroke-linecap="round" stroke-linejoin="round"/>
</svg>
